<svg width="10" height="10" viewBox="0 0 10 10" fill="none" xmlns="http://www.w3.org/2000/svg">
<g opacity="0.6" clip-path="url(#clip0)">
<path d="M9.06007 2.23518L8.83927 1.57333C8.7552 1.32126 8.52014 1.15189 8.25448 1.15189H6.39878V0.547714C6.39878 0.245743 6.15327 0 5.85137 0H4.152C3.85018 0 3.60459 0.245743 3.60459 0.547714V1.15189H1.74897C1.48324 1.15189 1.24818 1.32126 1.1641 1.57333L0.943309 2.23518C0.893031 2.38586 0.918514 2.55272 1.01136 2.68158C1.10421 2.81044 1.25444 2.88742 1.41328 2.88742H1.64407L2.15203 9.16878C2.1898 9.63486 2.58531 10 3.05261 10H7.05384C7.52107 10 7.91665 9.63486 7.95434 9.1687L8.46231 2.88742H8.5901C8.74894 2.88742 8.89916 2.81044 8.99201 2.68166C9.08486 2.5528 9.11035 2.38586 9.06007 2.23518ZM4.19053 0.585938H5.81285V1.15189H4.19053V0.585938ZM7.37031 9.12148C7.35704 9.28558 7.21803 9.41406 7.05384 9.41406H3.05261C2.88842 9.41406 2.74942 9.28558 2.73614 9.12148L2.23191 2.88742H7.87446L7.37031 9.12148ZM1.53894 2.30148L1.71998 1.75873C1.7241 1.74622 1.73577 1.73782 1.74897 1.73782H8.25448C8.26768 1.73782 8.27928 1.74622 8.28347 1.75873L8.46452 2.30148H1.53894Z" fill="black" stroke="black" stroke-width="0.2"/>
<path d="M6.43594 9.1007C6.44112 9.10101 6.44624 9.10108 6.45142 9.10108C6.60623 9.10108 6.73562 8.97978 6.74371 8.82337L7.01883 3.54216C7.02722 3.38056 6.90301 3.2427 6.7415 3.23431C6.57952 3.22569 6.44212 3.35005 6.43365 3.51164L6.1586 8.79286C6.15021 8.95445 6.27434 9.09231 6.43594 9.1007Z" fill="black" stroke="black" stroke-width="0.2"/>
<path d="M3.2729 8.82407C3.28144 8.98024 3.41068 9.10109 3.56518 9.10109C3.57052 9.10109 3.57601 9.10094 3.58143 9.10064C3.74294 9.09186 3.86676 8.95377 3.85799 8.79218L3.56983 3.51096C3.56106 3.34937 3.42297 3.22554 3.26138 3.23439C3.09986 3.24317 2.97604 3.38126 2.98481 3.54285L3.2729 8.82407Z" fill="black" stroke="black" stroke-width="0.2"/>
<path d="M5.00488 9.1011C5.1667 9.1011 5.29785 8.96996 5.29785 8.80814V3.52692C5.29785 3.3651 5.1667 3.23395 5.00488 3.23395C4.84306 3.23395 4.71191 3.3651 4.71191 3.52692V8.80814C4.71191 8.96996 4.84306 9.1011 5.00488 9.1011Z" fill="black" stroke="black" stroke-width="0.2"/>
</g>
<defs>
<clipPath id="clip0">
<rect width="10" height="10" fill="white"/>
</clipPath>
</defs>
</svg>
