<?xml version="1.0" encoding="iso-8859-1"?>
<!-- Generator: Adobe Illustrator 19.0.0, SVG Export Plug-In . SVG Version: 6.00 Build 0)  -->
<svg version="1.1" id="Capa_1" xmlns="http://www.w3.org/2000/svg" xmlns:xlink="http://www.w3.org/1999/xlink" x="0px" y="0px" height='50' width='40' fill='#B29BE3'
	 viewBox="0 0 213 213" style="enable-background:new 0 0 213 213;" xml:space="preserve">
<path d="M201.333,181.734V61.374c0-7.185-5.723-13.374-12.907-13.374h-47.093V27.248c0-7.185-5.796-13.248-12.98-13.248h-3.02
	v-2.713c0-6.082-5.058-11.287-11.14-11.287H39.067c-6.082,0-11.733,5.205-11.733,11.287V14h-2.427
	c-7.185,0-13.573,6.063-13.573,13.248v154.486c-6,2.041-10.938,8.112-10.938,15.266c0,8.822,7.449,16,16.271,16h180
	c8.822,0,15.939-7.178,15.939-16C212.605,189.846,207.333,183.775,201.333,181.734z M94.333,196h-36v-33h36V196z M123.333,138h-94
	v-18h94V138z M123.333,97h-94V79h94V97z M123.333,56h-94V38h94V56z M184.333,138h-35v-18h35V138z M184.333,97h-35V79h35V97z"/>
<g>
</g>
<g>
</g>
<g>
</g>
<g>
</g>
<g>
</g>
<g>
</g>
<g>
</g>
<g>
</g>
<g>
</g>
<g>
</g>
<g>
</g>
<g>
</g>
<g>
</g>
<g>
</g>
<g>
</g>
</svg>
