<svg id="Group_10" data-name="Group 10" xmlns="http://www.w3.org/2000/svg" width="22.221" height="22.113" viewBox="0 0 22.221 22.113">
  <g id="Group_8" data-name="Group 8">
    <path id="Path_5" data-name="Path 5" d="M4185.79,3431.749a2.989,2.989,0,0,1,2.95-.9,6.659,6.659,0,0,1,3.06,1.833l6.853,6.855a7.785,7.785,0,0,1,1.707,2.521,2.993,2.993,0,0,1-.776,3.489,2.892,2.892,0,0,1-3.162.79,8.861,8.861,0,0,1-3.313-2.191l-6.387-6.389a6.8,6.8,0,0,1-1.883-3.032,2.961,2.961,0,0,1,.952-2.978m-1.073-1.073h0c-2.861,2.861-1.063,6.161.931,8.156l6.386,6.39c1.994,1.994,5.634,4.386,8.62,1.4h0c3.482-3.48-.179-7.4-.93-8.155l-6.853-6.857c-1.994-1.994-5.421-3.667-8.155-.935Z" transform="translate(-4179.913 -3429.245)" fill="#bfbfbf"/>
    <path id="Path_6" data-name="Path 6" d="M4173.533,3444.055a2.987,2.987,0,0,1,2.949-.9,6.66,6.66,0,0,1,3.062,1.832l6.852,6.856a7.792,7.792,0,0,1,1.707,2.521,2.993,2.993,0,0,1-.776,3.489,2.894,2.894,0,0,1-3.163.791,8.878,8.878,0,0,1-3.313-2.191l-6.386-6.39a6.792,6.792,0,0,1-1.884-3.032,2.965,2.965,0,0,1,.953-2.978m-1.072-1.073h0c-2.863,2.861-1.063,6.161.93,8.156l6.386,6.39c1.994,1.995,5.635,4.386,8.622,1.4h0c3.481-3.48-.18-7.4-.93-8.155l-6.853-6.857c-1.994-1.994-5.42-3.667-8.154-.935Z" transform="translate(-4170.972 -3438.222)" fill="#bfbfbf"/>
  </g>
  <g id="Group_9" data-name="Group 9" transform="translate(0)">
    <path id="Path_7" data-name="Path 7" d="M4187.315,3431.749a2.989,2.989,0,0,0-2.949-.9,6.654,6.654,0,0,0-3.06,1.833l-6.853,6.855a7.784,7.784,0,0,0-1.707,2.521,2.994,2.994,0,0,0,.776,3.489,2.892,2.892,0,0,0,3.162.79,8.869,8.869,0,0,0,3.313-2.191l6.387-6.389a6.792,6.792,0,0,0,1.884-3.032,2.963,2.963,0,0,0-.953-2.978m1.073-1.073h0c2.861,2.861,1.063,6.161-.931,8.156l-6.386,6.39c-1.994,1.994-5.634,4.386-8.621,1.4h0c-3.482-3.48.18-7.4.931-8.155l6.852-6.857c1.993-1.994,5.42-3.667,8.155-.935Z" transform="translate(-4170.971 -3429.245)" fill="#bfbfbf"/>
    <path id="Path_8" data-name="Path 8" d="M4199.572,3444.055a2.988,2.988,0,0,0-2.949-.9,6.661,6.661,0,0,0-3.061,1.832l-6.852,6.856a7.807,7.807,0,0,0-1.708,2.521,2.994,2.994,0,0,0,.776,3.489,2.894,2.894,0,0,0,3.163.791,8.888,8.888,0,0,0,3.314-2.191l6.386-6.39a6.8,6.8,0,0,0,1.884-3.032,2.966,2.966,0,0,0-.953-2.978m1.072-1.073h0c2.862,2.861,1.063,6.161-.931,8.156l-6.386,6.39c-1.994,1.995-5.634,4.386-8.622,1.4h0c-3.48-3.48.181-7.4.931-8.155l6.853-6.857c1.994-1.994,5.42-3.667,8.154-.935Z" transform="translate(-4179.913 -3438.222)" fill="#bfbfbf"/>
  </g>
</svg>
