<svg width="10" height="10" viewBox="0 0 13 13" fill="none" xmlns="http://www.w3.org/2000/svg">
<path d="M5.81303 0.693527C5.69808 1.07036 5.38289 2.11668 5.11219 3.01467L4.61901 4.65029H2.28287C-0.0124831 4.65029 -0.0532729 4.65029 0.017182 4.72646C0.0579718 4.76655 0.899724 5.42 1.8898 6.17367C2.87988 6.92734 3.69938 7.55673 3.71422 7.57277C3.72905 7.5888 3.66972 7.83335 3.57701 8.11798C2.95033 10.0903 2.2977 12.203 2.30512 12.2351C2.31253 12.2551 2.60177 12.0507 2.94663 11.7821C3.29519 11.5135 4.13324 10.8641 4.81183 10.3389L6.04294 9.38077L7.27775 10.3389C7.95264 10.8641 8.79068 11.5135 9.13925 11.7821C9.48411 12.0507 9.77334 12.2551 9.77705 12.2391C9.78447 12.2191 9.67322 11.8382 9.53231 11.3852C8.59044 8.36653 8.38279 7.70907 8.36054 7.65295C8.3457 7.60484 8.74989 7.27611 10.1479 6.20975C11.1417 5.45207 11.9982 4.7906 12.0502 4.7425L12.1429 4.6543L9.80672 4.65029H7.47058L6.99964 3.09485C6.74007 2.24096 6.42488 1.19464 6.2988 0.769695C6.16902 0.348763 6.05777 -9.97846e-06 6.04665 -9.97846e-06C6.03552 -9.97846e-06 5.93169 0.312683 5.81303 0.693527Z" fill="#4CAE1A"/>
</svg>
